<svg width="397" height="394" viewBox="0 0 397 394" fill="none" xmlns="http://www.w3.org/2000/svg">
<g filter="url(#filter0_d_14_79)">
<ellipse cx="198.5" cy="319" rx="179.5" ry="50" fill="white"/>
</g>
<path opacity="0.34" d="M325.814 321.434H82.4689C79.3642 321.434 76.849 318.919 76.849 315.815C76.849 312.71 79.3642 310.195 82.4689 310.195H325.814C328.919 310.195 331.435 312.71 331.435 315.815C331.435 318.919 328.919 321.434 325.814 321.434Z" fill="black"/>
<path d="M251.895 315.824H258.969V209.4H251.895V315.824Z" fill="#2F262D"/>
<path d="M224.97 230.848C223.831 228.293 224.97 225.267 227.565 224.088C228.232 223.814 228.94 223.657 229.648 223.657C231.651 223.657 233.499 224.836 234.324 226.683L259.476 283.353L250.122 287.519L224.97 230.848Z" fill="#FC9F6F"/>
<path d="M182.921 315.824H189.995V209.4H182.921V315.824Z" fill="#2F262D"/>
<path d="M215.656 216.347C191.33 216.347 171.64 197.797 171.64 174.963C171.64 169.068 172.977 163.448 175.335 158.339C159.85 164.745 149.043 179.326 149.043 196.225C149.043 219.098 168.733 237.608 193.059 237.608C211.098 237.608 226.582 227.429 233.381 212.849C227.918 215.089 221.944 216.347 215.656 216.347Z" fill="#F2F2F2"/>
<path d="M191.29 227.547C204.596 227.547 215.381 217.641 215.381 205.421C215.381 193.202 204.596 183.295 191.29 183.295C177.986 183.295 167.199 193.202 167.199 205.421C167.199 217.641 177.986 227.547 191.29 227.547Z" fill="#3B323A"/>
<path d="M147.904 209.391H94.0231C91.9795 209.391 90.2896 207.7 90.2896 205.657V202.12C90.2896 200.077 91.9795 198.387 94.0231 198.387H147.904C149.947 198.387 151.637 200.077 151.637 202.12V205.657C151.637 207.7 149.947 209.391 147.904 209.391Z" fill="#AFAFAF"/>
<path d="M212.159 188.562C204.614 188.562 198.483 182.43 198.483 174.885V161.208C198.483 155.981 194.278 151.776 189.051 151.776V174.885C189.051 187.658 199.387 197.994 212.159 197.994H231.298V188.562H212.159Z" fill="#EF9067"/>
<path d="M215.263 116.368C213.849 134.249 198.129 154.056 183.43 151.541C169.361 149.144 159.694 126.939 164.448 111.376C167.396 101.787 175.492 95.7741 182.016 90.9402C188.776 85.9098 193.334 82.53 198.522 83.3553C208.819 84.9273 216.404 102.141 215.263 116.368Z" fill="#603936"/>
<path d="M195.417 167.261C195.142 166.947 192.941 164.392 192.548 164.038C191.527 159.833 189.443 155.195 189.876 149.773C186.929 147.611 182.055 144.86 176.514 145.253C174.863 145.37 173.134 145.763 172.27 145.96C167.475 147.06 164.448 148.829 163.466 149.418C162.13 150.244 161.462 150.637 160.676 151.423C158.553 153.623 158.043 156.296 157.767 157.868C155.409 171.544 157.257 184.67 157.492 185.811C157.925 187.894 158.515 189.741 158.515 189.741C159.497 192.845 160.676 194.771 160.991 195.636C162.563 199.88 166.138 208.801 169.912 215.6C172.663 216.032 178.911 218.783 183.037 217.369C189.325 215.207 202.294 210.373 206.932 209.391C201.155 202.906 195.85 195.674 194.474 186.871C194.12 184.592 193.806 182.352 193.57 180.151C194.12 179.876 197.46 178.186 198.129 174.807C198.836 171.151 195.968 167.889 195.417 167.261Z" fill="#F05364"/>
<path d="M181.225 158.965C184.654 158.009 186.53 153.998 185.417 150.004C184.304 146.011 180.621 143.549 177.192 144.505C173.764 145.461 171.887 149.473 173.001 153.466C174.114 157.46 177.797 159.922 181.225 158.965Z" fill="#EF9067"/>
<path d="M178.203 142.816C180.365 147.925 183.941 149.693 186.221 151.03C190.662 153.623 198.994 153.388 198.994 153.388C199.268 151.58 199.543 150.008 200.959 147.022C203.002 142.581 204.889 141.52 207.521 137.51C211.451 131.459 213.416 124.148 212.159 123.442C211.255 122.891 208.779 125.72 207.168 127.372C202.569 132.088 192.273 139.082 178.203 142.816Z" fill="#603936"/>
<path d="M178.046 154.056H176.396C172.781 154.056 169.872 151.148 169.872 147.532V122.734H182.919V149.143C182.919 151.855 180.719 154.056 178.046 154.056Z" fill="#EF9067"/>
<path d="M104.588 315.824H111.662V209.4H104.588V315.824Z" fill="#2F262D"/>
<path d="M148.098 315.824H155.172V209.4H148.098V315.824Z" fill="#494149"/>
<path d="M294.473 315.824H301.547V209.4H294.473V315.824Z" fill="#494149"/>
<path opacity="0.71" d="M169.872 125.367C170.736 132.874 175.925 139.082 182.919 141.44V121.241H169.872V125.367Z" fill="#D36B46"/>
<path d="M189.051 140.458C179.462 140.458 171.719 132.716 171.719 123.127V101.983C171.719 101.08 172.426 100.372 173.331 100.372H197.971C202.609 100.372 206.382 104.145 206.382 108.783V123.127C206.382 132.716 198.639 140.458 189.051 140.458Z" fill="#FC9F6F"/>
<path d="M206.382 120.651C206.186 121.122 205.713 121.437 205.203 121.437H197.578C196.871 121.437 196.281 120.847 196.281 120.14V115.857C196.281 115.149 196.871 114.559 197.578 114.559H205.203C205.713 114.559 206.186 114.874 206.382 115.345V113.695C206.028 113.499 205.635 113.38 205.203 113.38H197.578C196.203 113.38 195.102 114.481 195.102 115.857V120.14C195.102 121.515 196.203 122.616 197.578 122.616H205.203C205.635 122.616 206.028 122.498 206.382 122.301V120.651Z" fill="#DD9883"/>
<path d="M191.055 121.987H183.43C182.37 121.987 181.544 121.122 181.544 120.101V115.817C181.544 114.756 182.409 113.93 183.43 113.93H191.055C192.116 113.93 192.941 114.796 192.941 115.817V120.101C192.941 121.162 192.076 121.987 191.055 121.987Z" stroke="#DD9883" stroke-width="3" stroke-miterlimit="10" stroke-linecap="round" stroke-linejoin="round"/>
<path opacity="0.6" d="M182.488 126.428V105.284C182.488 104.381 183.195 103.673 184.098 103.673L198.326 98.6823C196.792 96.678 200.684 100.411 197.971 100.411H173.331C172.426 100.411 171.719 101.119 171.719 102.023V123.166C171.719 132.756 179.462 140.498 189.05 140.498C189.247 140.498 189.443 140.498 189.68 140.498C185.317 137.314 182.488 132.205 182.488 126.428Z" fill="#EF9067"/>
<path d="M205.203 121.201H197.578C196.517 121.201 195.692 120.336 195.692 119.315V115.031C195.692 113.97 196.557 113.144 197.578 113.144H205.203C206.264 113.144 207.089 114.01 207.089 115.031V119.315C207.089 120.376 206.224 121.201 205.203 121.201Z" stroke="#F6CDF7" stroke-width="3" stroke-miterlimit="10" stroke-linecap="round" stroke-linejoin="round"/>
<path d="M193.57 131.733C191.369 131.733 189.6 129.965 189.6 127.803V125.956H197.46V127.803C197.46 129.965 195.731 131.733 193.57 131.733Z" fill="#FCFAFA"/>
<path d="M186.456 116.681H189.993" stroke="#161515" stroke-width="3" stroke-miterlimit="10" stroke-linecap="round" stroke-linejoin="round"/>
<path d="M199.818 116.681H203.355" stroke="#161515" stroke-width="3" stroke-miterlimit="10" stroke-linecap="round" stroke-linejoin="round"/>
<path d="M191.055 121.201H183.43C182.37 121.201 181.544 120.336 181.544 119.315V115.031C181.544 113.97 182.409 113.144 183.43 113.144H191.055C192.116 113.144 192.941 114.01 192.941 115.031V119.315C192.941 120.376 192.076 121.201 191.055 121.201Z" stroke="#F6CDF7" stroke-width="3" stroke-miterlimit="10" stroke-linecap="round" stroke-linejoin="round"/>
<path d="M196.321 84.4557C191.565 78.3249 183.47 78.4428 181.977 78.2856C180.641 78.0105 173.291 78.3642 167.907 79.779C155.489 83.0802 146.843 94.32 146.843 107.211V123.717C146.843 134.799 155.016 148.239 165.51 151.738C171.326 153.703 177.772 155.195 179.304 154.96C171.522 140.537 172.584 132.008 174.784 127.017C180.051 114.834 195.495 115.267 199.308 101.708C199.387 101.315 201.783 91.5297 196.321 84.4557Z" fill="#754743"/>
<path d="M244.817 197.875C245.21 196.853 245.406 195.754 245.406 194.613C245.406 189.386 241.201 185.181 235.974 185.181C230.748 185.181 226.542 189.386 226.542 194.613C226.542 195.754 226.739 196.853 227.132 197.875H244.817Z" fill="#EF9067"/>
<path d="M214.556 198.387C213.77 194.771 209.408 192.02 204.103 192.02C198.836 192.02 194.434 194.771 193.648 198.387H214.556Z" fill="#F4EFF0"/>
<path d="M162.798 170.877C165.967 170.877 168.536 166.847 168.536 161.876C168.536 156.906 165.967 152.877 162.798 152.877C159.629 152.877 157.061 156.906 157.061 161.876C157.061 166.847 159.629 170.877 162.798 170.877Z" fill="#EF9067"/>
<path d="M180.168 188.876C172.623 188.876 166.493 182.745 166.493 175.2V158.497C166.493 155.903 164.37 153.781 161.777 153.781C159.182 153.781 157.061 155.903 157.061 158.497V175.2C157.061 187.972 167.396 198.308 180.168 198.308H199.308V188.876H189.718H180.168Z" fill="#FC9F6F"/>
<path d="M259.634 198.387H215.618C215.067 198.387 214.596 197.915 214.596 197.364C214.596 196.815 215.067 196.343 215.618 196.343H259.672C260.223 196.343 260.695 196.815 260.695 197.364C260.695 197.915 260.223 198.387 259.634 198.387Z" fill="white"/>
<path d="M259.634 197.364H215.618C215.225 197.364 214.91 197.168 214.714 196.853C214.635 197.011 214.556 197.168 214.556 197.364C214.556 197.915 215.028 198.387 215.578 198.387H259.634C260.183 198.387 260.655 197.915 260.655 197.364C260.655 197.168 260.616 197.011 260.498 196.853C260.34 197.129 260.027 197.364 259.634 197.364Z" fill="#F4EFF0"/>
<path d="M224.146 198.387H215.618C215.067 198.387 214.596 197.915 214.596 197.364C214.596 196.815 215.067 196.343 215.618 196.343H224.146C224.695 196.343 225.167 196.815 225.167 197.364C225.167 197.915 224.735 198.387 224.146 198.387Z" fill="#F4EFF0"/>
<path d="M256.528 196.343H253.306V195.596C253.306 195.203 253.621 194.85 254.052 194.85H255.782C256.175 194.85 256.528 195.164 256.528 195.596V196.343Z" fill="#F4EFF0"/>
<path d="M252.598 196.343H249.376V195.596C249.376 195.203 249.691 194.85 250.122 194.85H251.852C252.245 194.85 252.598 195.164 252.598 195.596V196.343Z" fill="#F4EFF0"/>
<path d="M248.668 196.343H245.446V195.596C245.446 195.203 245.761 194.85 246.192 194.85H247.922C248.315 194.85 248.668 195.164 248.668 195.596V196.343Z" fill="#F4EFF0"/>
<path d="M244.738 196.343H241.516V195.596C241.516 195.203 241.831 194.85 242.262 194.85H243.992C244.385 194.85 244.738 195.164 244.738 195.596V196.343Z" fill="#F4EFF0"/>
<path d="M240.808 196.343H237.586V195.596C237.586 195.203 237.901 194.85 238.332 194.85H240.062C240.455 194.85 240.808 195.164 240.808 195.596V196.343Z" fill="#F4EFF0"/>
<path d="M236.878 196.343H233.656V195.596C233.656 195.203 233.971 194.85 234.402 194.85H236.132C236.525 194.85 236.878 195.164 236.878 195.596V196.343Z" fill="#F4EFF0"/>
<path d="M232.948 196.343H229.726V195.596C229.726 195.203 230.041 194.85 230.472 194.85H232.202C232.595 194.85 232.948 195.164 232.948 195.596V196.343Z" fill="#F4EFF0"/>
<path d="M229.018 196.343H225.796V195.596C225.796 195.203 226.111 194.85 226.542 194.85H228.272C228.665 194.85 229.018 195.164 229.018 195.596V196.343Z" fill="#F4EFF0"/>
<path d="M225.088 196.343H221.866V195.596C221.866 195.203 222.181 194.85 222.612 194.85H224.342C224.735 194.85 225.088 195.164 225.088 195.596V196.343Z" fill="#F4EFF0"/>
<path d="M221.158 196.343H217.936V195.596C217.936 195.203 218.251 194.85 218.682 194.85H220.412C220.805 194.85 221.158 195.164 221.158 195.596V196.343Z" fill="#F4EFF0"/>
<path d="M215.618 198.387H224.146C224.695 198.387 225.167 197.915 225.167 197.364H214.556C214.556 197.915 215.028 198.387 215.618 198.387Z" fill="#E2E2E2"/>
<path d="M219.43 230.298H188.343L188.108 213.792H226.622C229.215 213.792 231.298 215.875 231.298 218.468C231.258 225.032 225.953 230.298 219.43 230.298Z" fill="#352934"/>
<path d="M194.434 290.152L213.495 225.7C214.124 223.539 216.128 222.045 218.407 222.045C218.879 222.045 219.39 222.123 219.861 222.242C222.574 223.028 224.106 225.897 223.32 228.608L204.259 293.06L194.434 290.152Z" fill="#EF9067"/>
<path d="M210.272 284.885L194.434 280.209L214.399 212.731C215.696 208.368 220.294 205.854 224.657 207.151C229.018 208.447 231.534 213.046 230.237 217.407L210.272 284.885Z" fill="#352934"/>
<path d="M288.951 179.286H222.927C221.63 179.286 220.569 178.225 220.569 176.928L228.744 129.768C228.744 128.471 229.804 127.41 231.102 127.41H297.126C298.423 127.41 299.484 128.471 299.484 129.768L291.309 176.928C291.309 178.225 290.288 179.286 288.951 179.286Z" fill="#CECECE"/>
<path d="M292.881 179.286H226.857C225.56 179.286 224.499 178.225 224.499 176.928L232.673 129.768C232.673 128.471 233.734 127.41 235.031 127.41H301.056C302.353 127.41 303.414 128.471 303.414 129.768L295.239 176.928C295.239 178.225 294.218 179.286 292.881 179.286Z" fill="#F4EFF0"/>
<path d="M272.72 195.832L267.297 168.361H257.629C256.45 168.361 255.546 169.461 255.782 170.602L260.577 194.85C260.773 195.754 260.065 196.578 259.161 196.578H253.266C252.205 196.578 251.381 197.443 251.381 198.465H261.284H270.48C271.934 198.505 272.996 197.208 272.72 195.832Z" fill="#CECECE"/>
<path d="M273.231 198.505H263.209L257.393 169.03C257.314 168.675 257.589 168.4 257.944 168.4H269.223L274.803 196.657C274.961 197.601 274.213 198.505 273.231 198.505Z" fill="#F4EFF0"/>
<path d="M261.323 198.505H263.209L262.698 195.832H260.773L261.323 198.505Z" fill="#F4EFF0"/>
<path d="M261.323 198.505C262.305 198.505 263.053 197.601 262.856 196.618L262.698 195.832H260.576L261.323 198.505Z" fill="#CECECE"/>
<path d="M269.969 154.292C267.847 154.292 266.118 152.562 266.118 150.441C266.118 149.733 266.315 149.104 266.628 148.554C266.079 148.397 265.489 148.279 264.86 148.279C261.519 148.279 258.848 150.99 258.848 154.292C258.848 157.593 261.559 160.304 264.86 160.304C268.2 160.304 270.873 157.593 270.873 154.292C270.873 154.252 270.873 154.213 270.873 154.174C270.558 154.252 270.283 154.292 269.969 154.292Z" fill="#CECECE"/>
<path d="M224.264 221.299L191.88 229.827C183.077 232.145 174.156 225.897 169.872 215.56L220.058 205.303C224.46 204.163 228.98 206.796 230.119 211.198C231.298 215.639 228.665 220.158 224.264 221.299Z" fill="#3B323A"/>
<path d="M256.843 270.424L241.752 277.143L215.303 217.644C213.456 213.477 215.342 208.605 219.508 206.758C223.674 204.91 228.547 206.796 230.394 210.963L256.843 270.424Z" fill="#3B323A"/>
<path d="M144.642 209.391H312.924C314.967 209.391 316.657 207.7 316.657 205.657V202.12C316.657 200.077 314.967 198.387 312.924 198.387H144.642C142.598 198.387 140.908 200.077 140.908 202.12V205.657C140.908 207.7 142.558 209.391 144.642 209.391Z" fill="#F2F2F2"/>
<path d="M281.445 289.563L248 295.654C246.703 295.889 245.486 295.065 245.21 293.846L244.975 292.785C244.307 289.719 246.272 286.615 249.494 285.789L273.86 279.62C278.576 278.441 283.331 280.602 284.196 284.572L284.51 285.986C284.864 287.598 283.489 289.208 281.445 289.563Z" fill="#535452"/>
<path d="M282.741 286.537L245.368 293.335C245.289 293.335 245.21 293.374 245.131 293.374L245.25 293.846C245.524 295.103 246.743 295.889 248.04 295.654L281.484 289.563C283.527 289.208 284.942 287.598 284.589 285.986L284.55 285.868C284 286.182 283.41 286.419 282.741 286.537Z" fill="#FFFDFD"/>
<path d="M212.394 310.588L184.453 291.253C183.392 290.505 183.077 289.051 183.785 287.991L184.374 287.047C186.063 284.414 189.68 283.589 192.509 285.318L214.084 298.209C218.289 300.723 220.098 305.636 217.896 309.016L217.11 310.234C216.246 311.609 214.084 311.767 212.394 310.588Z" fill="#424441"/>
<path d="M215.46 309.369L184.216 287.754C184.138 287.716 184.098 287.636 184.02 287.598L183.785 287.991C183.116 289.051 183.392 290.505 184.453 291.253L212.394 310.588C214.084 311.767 216.246 311.609 217.11 310.234L217.19 310.117C216.6 309.999 216.011 309.724 215.46 309.369Z" fill="#CECECE"/>
<path d="M135.013 198.387H128.647C125.424 198.387 122.79 195.754 122.79 192.53V175.2H140.868V192.53C140.908 195.754 138.275 198.387 135.013 198.387Z" fill="#FF6161"/>
<path d="M124.835 177.558C120.629 177.558 117.25 180.977 117.25 185.143C117.25 189.308 120.669 192.727 124.835 192.727C129 192.727 132.419 189.308 132.419 185.143C132.419 180.977 129 177.558 124.835 177.558ZM124.835 191.076C121.573 191.076 118.9 188.404 118.9 185.143C118.9 181.881 121.573 179.208 124.835 179.208C128.096 179.208 130.768 181.881 130.768 185.143C130.73 188.444 128.096 191.076 124.835 191.076Z" fill="#F4A36C"/>
<path d="M135.013 198.387H128.647C125.424 198.387 122.79 195.754 122.79 192.53V175.2H140.868V192.53C140.908 195.754 138.275 198.387 135.013 198.387Z" fill="#F7BC8B"/>
<path d="M131.358 192.885C129.551 192.885 128.096 191.431 128.096 189.623V175.2H122.79V192.53C122.79 195.754 125.424 198.387 128.647 198.387H135.013C138.117 198.387 140.672 195.95 140.868 192.885H131.358Z" fill="#EFA573"/>
<path d="M206.303 198.387C206.696 197.364 206.892 196.264 206.892 195.125C206.892 189.897 202.687 185.693 197.46 185.693C192.234 185.693 188.028 189.897 188.028 195.125C188.028 196.264 188.225 197.364 188.618 198.387H206.303Z" fill="#FC9F6F"/>
<path opacity="0.77" d="M129.864 172.056C131.276 172.056 132.419 170.911 132.419 169.501C132.419 168.09 131.276 166.947 129.864 166.947C128.454 166.947 127.31 168.09 127.31 169.501C127.31 170.911 128.454 172.056 129.864 172.056Z" fill="#F2F2F2"/>
<path opacity="0.77" d="M134.58 164.392C136.686 164.392 138.393 162.685 138.393 160.58C138.393 158.475 136.686 156.767 134.58 156.767C132.476 156.767 130.768 158.475 130.768 160.58C130.768 162.685 132.476 164.392 134.58 164.392Z" fill="#F2F2F2"/>
<defs>
<filter id="filter0_d_14_79" x="0" y="256" width="397" height="138" filterUnits="userSpaceOnUse" color-interpolation-filters="sRGB">
<feFlood flood-opacity="0" result="BackgroundImageFix"/>
<feColorMatrix in="SourceAlpha" type="matrix" values="0 0 0 0 0 0 0 0 0 0 0 0 0 0 0 0 0 0 127 0" result="hardAlpha"/>
<feMorphology radius="4" operator="dilate" in="SourceAlpha" result="effect1_dropShadow_14_79"/>
<feOffset dy="6"/>
<feGaussianBlur stdDeviation="7.5"/>
<feColorMatrix type="matrix" values="0 0 0 0 0 0 0 0 0 0 0 0 0 0 0 0 0 0 0.25 0"/>
<feBlend mode="normal" in2="BackgroundImageFix" result="effect1_dropShadow_14_79"/>
<feBlend mode="normal" in="SourceGraphic" in2="effect1_dropShadow_14_79" result="shape"/>
</filter>
</defs>
</svg>
